<mxfile host="app.diagrams.net" modified="2024-06-10T06:27:26.856Z" agent="Mozilla/5.0 (Windows NT 10.0; Win64; x64) AppleWebKit/537.36 (KHTML, like Gecko) Chrome/125.0.0.0 Safari/537.36" etag="eQ0hfWL9GGYesWz7koB-" version="24.5.2" type="device">
  <diagram name="Page-1" id="RgB4iuCM7mwgBmCv5fRL">
    <mxGraphModel dx="1674" dy="738" grid="1" gridSize="10" guides="1" tooltips="1" connect="1" arrows="1" fold="1" page="1" pageScale="1" pageWidth="827" pageHeight="1169" math="0" shadow="0">
      <root>
        <mxCell id="0" />
        <mxCell id="1" parent="0" />
        <mxCell id="ATutsZxOATkMMOGRhrGU-1" value="&lt;div&gt;display&lt;/div&gt;" style="html=1;whiteSpace=wrap;" vertex="1" parent="1">
          <mxGeometry x="280" y="440" width="110" height="50" as="geometry" />
        </mxCell>
        <mxCell id="ATutsZxOATkMMOGRhrGU-2" style="edgeStyle=orthogonalEdgeStyle;rounded=0;orthogonalLoop=1;jettySize=auto;html=1;exitX=0;exitY=0.5;exitDx=0;exitDy=0;entryX=1;entryY=0.5;entryDx=0;entryDy=0;dashed=1;startArrow=none;startFill=0;endArrow=open;endFill=0;" edge="1" parent="1" source="ATutsZxOATkMMOGRhrGU-3" target="ATutsZxOATkMMOGRhrGU-1">
          <mxGeometry relative="1" as="geometry" />
        </mxCell>
        <mxCell id="ATutsZxOATkMMOGRhrGU-3" value="display_controller" style="html=1;whiteSpace=wrap;" vertex="1" parent="1">
          <mxGeometry x="490" y="440" width="110" height="50" as="geometry" />
        </mxCell>
        <mxCell id="ATutsZxOATkMMOGRhrGU-4" value="monkeylist" style="html=1;whiteSpace=wrap;" vertex="1" parent="1">
          <mxGeometry x="625" y="320" width="110" height="50" as="geometry" />
        </mxCell>
        <mxCell id="ATutsZxOATkMMOGRhrGU-6" value="button_manager" style="html=1;whiteSpace=wrap;" vertex="1" parent="1">
          <mxGeometry x="490" y="550" width="110" height="50" as="geometry" />
        </mxCell>
        <mxCell id="ATutsZxOATkMMOGRhrGU-7" value="" style="rounded=0;orthogonalLoop=1;jettySize=auto;html=1;exitX=0.75;exitY=0;exitDx=0;exitDy=0;entryX=0.237;entryY=1.022;entryDx=0;entryDy=0;entryPerimeter=0;endArrow=open;endFill=0;dashed=1;" edge="1" parent="1" source="ATutsZxOATkMMOGRhrGU-3" target="ATutsZxOATkMMOGRhrGU-4">
          <mxGeometry relative="1" as="geometry" />
        </mxCell>
        <mxCell id="ATutsZxOATkMMOGRhrGU-8" value="&lt;div&gt;ble&lt;/div&gt;" style="html=1;whiteSpace=wrap;" vertex="1" parent="1">
          <mxGeometry x="490" y="200" width="110" height="50" as="geometry" />
        </mxCell>
        <mxCell id="ATutsZxOATkMMOGRhrGU-9" value="" style="rounded=0;orthogonalLoop=1;jettySize=auto;html=1;exitX=0.75;exitY=1;exitDx=0;exitDy=0;entryX=0.25;entryY=0;entryDx=0;entryDy=0;endArrow=open;endFill=0;dashed=1;" edge="1" parent="1" source="ATutsZxOATkMMOGRhrGU-8" target="ATutsZxOATkMMOGRhrGU-4">
          <mxGeometry relative="1" as="geometry">
            <mxPoint x="500" y="180" as="sourcePoint" />
            <mxPoint x="578" y="101" as="targetPoint" />
          </mxGeometry>
        </mxCell>
        <mxCell id="ATutsZxOATkMMOGRhrGU-10" value="connection" style="html=1;whiteSpace=wrap;" vertex="1" parent="1">
          <mxGeometry x="380" y="320" width="110" height="50" as="geometry" />
        </mxCell>
        <mxCell id="ATutsZxOATkMMOGRhrGU-11" value="" style="rounded=0;orthogonalLoop=1;jettySize=auto;html=1;exitX=0.25;exitY=1;exitDx=0;exitDy=0;entryX=0.5;entryY=0;entryDx=0;entryDy=0;endArrow=open;endFill=0;dashed=1;" edge="1" parent="1" source="ATutsZxOATkMMOGRhrGU-8" target="ATutsZxOATkMMOGRhrGU-10">
          <mxGeometry relative="1" as="geometry">
            <mxPoint x="553" y="130" as="sourcePoint" />
            <mxPoint x="663" y="320" as="targetPoint" />
          </mxGeometry>
        </mxCell>
        <mxCell id="ATutsZxOATkMMOGRhrGU-12" value="&lt;div&gt;snes_client&lt;/div&gt;" style="html=1;whiteSpace=wrap;" vertex="1" parent="1">
          <mxGeometry x="650" y="200" width="110" height="50" as="geometry" />
        </mxCell>
        <mxCell id="ATutsZxOATkMMOGRhrGU-14" value="" style="rounded=0;orthogonalLoop=1;jettySize=auto;html=1;exitX=1;exitY=0.5;exitDx=0;exitDy=0;entryX=0;entryY=0.5;entryDx=0;entryDy=0;endArrow=open;endFill=0;dashed=1;" edge="1" parent="1" source="ATutsZxOATkMMOGRhrGU-8" target="ATutsZxOATkMMOGRhrGU-12">
          <mxGeometry relative="1" as="geometry">
            <mxPoint x="553" y="130" as="sourcePoint" />
            <mxPoint x="663" y="320" as="targetPoint" />
          </mxGeometry>
        </mxCell>
        <mxCell id="ATutsZxOATkMMOGRhrGU-17" value="" style="rounded=0;orthogonalLoop=1;jettySize=auto;html=1;exitX=0.25;exitY=0;exitDx=0;exitDy=0;entryX=0.5;entryY=1;entryDx=0;entryDy=0;endArrow=open;endFill=0;dashed=1;" edge="1" parent="1" source="ATutsZxOATkMMOGRhrGU-3" target="ATutsZxOATkMMOGRhrGU-10">
          <mxGeometry relative="1" as="geometry">
            <mxPoint x="583" y="450" as="sourcePoint" />
            <mxPoint x="661" y="371" as="targetPoint" />
          </mxGeometry>
        </mxCell>
        <mxCell id="ATutsZxOATkMMOGRhrGU-18" value="" style="rounded=0;orthogonalLoop=1;jettySize=auto;html=1;exitX=0.5;exitY=0;exitDx=0;exitDy=0;entryX=0.5;entryY=1;entryDx=0;entryDy=0;endArrow=open;endFill=0;dashed=1;" edge="1" parent="1" source="ATutsZxOATkMMOGRhrGU-6" target="ATutsZxOATkMMOGRhrGU-3">
          <mxGeometry relative="1" as="geometry">
            <mxPoint x="593" y="460" as="sourcePoint" />
            <mxPoint x="671" y="381" as="targetPoint" />
          </mxGeometry>
        </mxCell>
      </root>
    </mxGraphModel>
  </diagram>
</mxfile>
